# xmcd CD database file
#
# Track frame offsets:
#	150
#	25305
#	48631
#	73757
#	108199
#
# Disc length: 1448 seconds
#
# Revision: 0
# Processed by: cddbd v1.5.1PL0 Copyright (c) Steve Scherf et al.
# Submitted via: CDex 1.51
#
DISCID=4005a605
DTITLE=林　明日香 - 蓮花
DYEAR=2005
DGENRE=JPop
TTITLE0=蓮花（日本語バージョン）
TTITLE1=蓮花（中国語バージョン）
TTITLE2=蓮花（日本語バージョン・インストゥルメンタル）
TTITLE3=蓮花（中国語バージョン・インストゥルメンタル）
TTITLE4=データ
EXTD=YEAR: 2005
EXTT0=
EXTT1=
EXTT2=
EXTT3=
EXTT4=
PLAYORDER=
